<?xml version="1.0" standalone="no"?>
<!DOCTYPE svg PUBLIC "-//W3C//DTD SVG 20010904//EN"
 "http://www.w3.org/TR/2001/REC-SVG-20010904/DTD/svg10.dtd">
<svg version="1.0" xmlns="http://www.w3.org/2000/svg"
 width="700.000000pt" height="700.000000pt" viewBox="0 0 700.000000 700.000000"
 preserveAspectRatio="xMidYMid meet">
<metadata>
Created by potrace 1.14, written by Peter Selinger 2001-2017
</metadata>
<g transform="translate(0.000000,700.000000) scale(0.100000,-0.100000)"
fill="#000000" stroke="none">
<path d="M3488 6846 c-1 -2 -68 -6 -148 -10 -144 -6 -184 -9 -270 -21 -25 -4
-61 -9 -80 -11 -19 -3 -42 -7 -50 -9 -8 -3 -33 -7 -55 -10 -76 -12 -321 -74
-428 -109 -374 -124 -741 -323 -1052 -573 -117 -94 -370 -339 -451 -438 -27
-33 -52 -62 -55 -65 -34 -31 -219 -299 -288 -418 -164 -282 -321 -685 -377
-967 -2 -11 -6 -31 -9 -45 -7 -35 -33 -188 -39 -230 -5 -41 -15 -141 -21 -220
-6 -72 -6 -396 -1 -435 2 -16 7 -68 10 -115 4 -47 9 -92 11 -100 2 -8 6 -35 9
-60 3 -25 8 -56 11 -70 3 -14 10 -52 16 -85 61 -344 220 -754 421 -1086 61
-101 200 -305 218 -319 3 -3 35 -41 70 -85 35 -44 132 -148 214 -230 301 -301
602 -509 991 -685 266 -121 533 -199 870 -255 17 -3 44 -7 60 -10 165 -27 692
-28 855 -1 14 3 48 7 75 11 296 36 683 159 1000 317 324 161 599 361 865 628
411 410 686 873 848 1425 32 107 77 301 87 375 8 61 16 109 20 130 2 9 6 50
10 91 3 41 8 97 10 124 6 62 6 374 0 435 -11 132 -16 177 -19 200 -3 14 -7 43
-10 65 -54 411 -222 877 -451 1252 -148 241 -296 427 -504 634 -331 329 -700
570 -1136 742 -196 77 -491 159 -658 183 -23 4 -49 7 -57 9 -8 1 -42 5 -75 9
-33 4 -71 10 -85 12 -14 2 -92 7 -175 10 -82 3 -155 7 -162 9 -6 2 -13 2 -15
1z m297 -170 c22 -2 65 -7 95 -10 30 -3 66 -8 80 -11 13 -2 42 -7 65 -11 92
-13 282 -57 391 -90 1216 -368 2088 -1404 2249 -2669 21 -164 27 -485 12 -645
-12 -123 -13 -139 -22 -200 -8 -61 -10 -71 -26 -150 -134 -667 -462 -1260
-950 -1715 -307 -286 -628 -490 -1004 -638 -247 -97 -512 -168 -720 -193 -22
-2 -53 -6 -70 -8 -201 -27 -565 -28 -765 -1 -14 2 -47 6 -75 9 -123 15 -334
63 -495 113 -914 284 -1660 976 -2014 1871 -45 113 -116 329 -131 400 -27 124
-56 272 -60 310 -3 27 -8 59 -10 73 -25 126 -25 641 0 779 1 8 6 42 11 75 4
33 8 62 9 65 0 3 5 28 10 55 10 60 10 60 23 110 6 22 13 52 16 66 13 76 101
345 151 464 264 622 704 1136 1278 1494 347 216 785 374 1212 436 22 4 51 8
65 11 14 2 68 7 120 10 52 3 96 7 98 9 5 4 411 -3 457 -9z"/>
<path d="M3356 6458 c-8 -5 -13 -67 -15 -225 -2 -120 -4 -245 -5 -278 -1 -33
-1 -65 2 -72 5 -14 268 -18 305 -4 52 20 56 39 61 275 6 250 1 276 -56 295
-38 12 -273 20 -292 9z m215 -100 c2 -37 -3 -383 -6 -388 -2 -4 -25 -7 -50 -9
l-46 -2 5 203 c2 112 5 204 5 206 1 1 21 2 46 2 29 0 45 -4 46 -12z"/>
<path d="M4025 6410 c-3 -4 -32 -126 -65 -271 -34 -145 -63 -271 -65 -280 -5
-16 39 -29 210 -65 39 -8 77 -17 87 -20 12 -4 18 4 23 35 4 23 7 44 7 48 -1 9
-115 41 -149 42 -27 1 -27 10 -10 96 15 67 12 66 115 40 28 -7 52 -10 53 -7 1
13 8 46 13 68 5 20 0 23 -67 39 -39 10 -73 19 -75 20 -2 2 2 23 8 46 7 24 14
52 16 63 2 10 5 21 8 23 2 3 42 -4 88 -15 46 -11 84 -18 86 -17 1 1 4 11 6 21
2 11 7 31 11 47 4 15 4 27 0 27 -5 0 -135 30 -263 60 -17 4 -34 4 -37 0z"/>
<path d="M2507 6291 c-91 -33 -134 -68 -132 -109 1 -45 56 -194 81 -219 29
-29 66 -29 142 -3 67 24 70 21 98 -62 18 -54 14 -63 -29 -73 -24 -6 -29 -3
-42 28 -16 39 -15 39 -102 7 -39 -14 -40 -20 -9 -87 38 -80 76 -84 242 -22 99
37 108 77 53 224 -26 68 -41 93 -61 105 -28 15 -52 11 -179 -27 -13 -4 -22 10
-38 58 -22 66 -18 85 19 89 31 4 39 -1 50 -34 l11 -33 55 22 c30 12 57 25 60
28 11 11 -29 98 -54 117 -33 27 -72 24 -165 -9z"/>
<path d="M4555 6121 c-32 -69 -73 -157 -90 -196 -80 -171 -95 -209 -88 -216
10 -10 250 -119 261 -119 4 0 14 17 22 38 8 20 16 40 18 43 1 3 -31 20 -73 38
-41 18 -75 36 -75 40 0 4 14 36 31 72 31 63 66 140 107 229 11 25 30 67 42 93
12 27 20 50 18 51 -2 2 -28 14 -59 28 l-57 26 -57 -127z"/>
<path d="M1905 5994 c-27 -19 -56 -39 -64 -43 -11 -7 -12 -15 -3 -37 5 -16 40
-110 77 -209 36 -99 77 -211 91 -249 13 -38 26 -71 29 -74 6 -7 105 58 105 69
0 5 -7 26 -15 46 -9 20 -14 42 -11 49 2 6 27 25 54 42 l50 30 37 -38 37 -38
49 30 c27 16 51 33 54 38 7 12 -411 420 -430 419 -5 0 -32 -16 -60 -35z m235
-303 c0 -5 -16 -18 -35 -30 -41 -24 -36 -30 -86 99 -18 47 -37 92 -42 100 -6
8 29 -24 76 -72 48 -48 87 -92 87 -97z"/>
<path d="M4968 5767 c-168 -230 -193 -266 -187 -271 48 -36 99 -67 106 -63 4
3 35 44 68 91 33 47 65 85 70 86 6 0 35 -19 65 -41 l54 -42 28 34 c15 18 28
36 28 39 0 3 -23 20 -50 39 -74 50 -74 51 -34 107 20 27 39 55 43 63 7 11 25
3 83 -38 41 -28 77 -51 81 -51 3 0 18 17 31 37 l25 37 -97 71 c-53 39 -111 81
-128 93 l-32 22 -154 -213z"/>
<path d="M3994 5731 c-12 -5 -53 -40 -90 -76 l-69 -67 -52 6 c-28 3 -98 9
-155 12 -57 3 -139 14 -182 26 -79 20 -239 27 -316 14 -19 -4 -48 -9 -65 -12
-16 -3 -69 -17 -117 -31 -83 -25 -87 -27 -95 -60 -8 -33 -13 -37 -88 -64 -162
-59 -421 -200 -536 -293 -15 -11 -44 -34 -65 -51 -65 -50 -257 -246 -317 -321
-87 -111 -166 -235 -234 -369 -106 -208 -188 -482 -211 -710 -9 -92 -9 -392 1
-480 39 -365 209 -774 445 -1070 109 -137 285 -302 437 -411 269 -193 616
-326 962 -371 121 -16 475 -9 588 12 400 72 697 206 1000 451 222 179 404 403
547 674 113 215 196 499 222 765 6 61 7 338 1 380 -2 17 -7 57 -10 90 -9 83
-51 270 -84 374 -170 522 -552 974 -1034 1222 l-99 51 -39 83 c-21 46 -52 99
-70 119 -67 76 -214 133 -275 107z m183 -141 c25 -19 52 -50 59 -68 l14 -34
-43 7 c-91 16 -240 85 -231 108 2 7 18 22 35 34 30 21 33 21 75 5 25 -9 65
-32 91 -52z m-754 -84 c76 -21 106 -37 149 -80 35 -35 66 -92 56 -102 -3 -3
-23 1 -44 9 -168 61 -278 65 -379 15 -47 -24 -125 -85 -125 -99 0 -5 29 -38
64 -72 44 -43 62 -67 57 -76 -14 -22 -47 -3 -104 60 -80 87 -127 192 -127 281
0 35 2 38 42 49 52 13 74 19 113 26 17 2 31 6 32 7 10 9 219 -5 266 -18z m501
-90 c64 -12 245 -70 335 -109 558 -239 967 -706 1127 -1286 44 -159 44 -171 2
-171 -25 0 -42 -11 -80 -51 -57 -60 -75 -92 -84 -147 -13 -85 20 -126 78 -98
41 21 46 13 13 -20 -21 -21 -32 -25 -58 -20 -47 10 -71 39 -77 96 -5 49 -5 49
-29 37 -45 -22 -66 -73 -66 -160 0 -73 -1 -78 -23 -84 -76 -19 -187 25 -367
144 -171 114 -222 156 -230 192 -6 30 -21 48 -31 38 -5 -5 -8 -42 -5 -67 2
-20 73 -95 136 -145 28 -21 54 -42 59 -46 5 -4 -29 5 -75 21 -75 25 -142 54
-374 160 -170 78 -394 161 -545 201 -264 71 -457 59 -605 -36 l-53 -34 8 28
c4 15 15 41 24 59 9 17 16 33 16 35 0 2 -28 -2 -62 -10 -382 -88 -694 -385
-707 -673 -2 -30 -4 -56 -6 -58 -1 -2 -18 17 -36 43 l-33 46 -13 -25 c-66
-127 -169 -475 -188 -639 -3 -23 -7 -53 -10 -67 -9 -45 -14 -104 -17 -182 -1
-43 -6 -74 -11 -71 -5 3 -41 53 -79 112 -216 331 -334 733 -287 973 l12 58 30
-26 c36 -30 43 -26 28 19 -27 80 -13 180 45 331 90 236 233 457 408 631 106
105 124 120 223 187 76 52 93 56 73 18 -15 -28 -27 -189 -13 -175 6 6 27 35
47 65 96 146 249 252 401 278 53 9 313 9 395 -1 118 -13 218 -36 367 -83 l111
-35 -14 -27 c-18 -36 -18 -46 3 -37 10 3 36 9 57 12 l39 5 -21 -30 c-12 -16
-26 -41 -31 -55 -10 -25 -9 -26 17 -16 48 19 162 14 238 -10 165 -53 429 -252
696 -528 127 -130 187 -196 188 -205 0 -3 15 -16 33 -27 28 -17 39 -19 70 -10
61 17 89 48 89 99 1 107 -84 410 -170 608 -83 193 -221 406 -356 549 -167 179
-414 338 -626 404 -83 25 -114 42 -54 29 22 -5 52 -11 68 -14z m797 -1087 c80
-44 113 -58 119 -49 5 8 9 3 12 -14 3 -15 3 -28 -1 -30 -3 -2 -66 26 -140 61
-84 41 -147 65 -168 65 -19 0 -32 2 -29 5 5 5 61 20 83 22 7 1 63 -27 124 -60z
m-104 -44 c28 -82 81 -108 138 -69 19 13 37 20 39 16 7 -12 -7 -28 -40 -45
-72 -37 -143 13 -168 116 -10 44 15 29 31 -18z m132 -51 c-14 -18 -24 -11 -15
11 3 9 11 13 16 10 8 -5 7 -11 -1 -21z m-604 -658 c102 -18 257 -58 310 -80
l35 -15 1 -133 c1 -151 2 -163 18 -273 28 -185 38 -228 77 -310 19 -40 34 -77
34 -82 0 -12 -148 -180 -201 -227 -83 -74 -76 -76 -208 60 -110 114 -214 223
-381 400 -173 184 -470 528 -470 544 0 6 51 30 134 65 60 24 191 55 260 62 33
3 62 7 64 8 10 9 250 -5 327 -19z m1280 -138 c-9 -345 -203 -685 -430 -751
-48 -14 -124 -15 -145 -2 -21 13 -7 48 77 191 92 158 133 246 178 385 21 64
32 86 44 84 24 -4 152 45 189 72 18 13 44 35 59 49 14 13 27 24 28 24 0 0 1
-24 0 -52z m-701 -21 c3 3 42 -11 88 -30 46 -19 99 -38 118 -42 19 -4 38 -9
42 -11 15 -9 -156 -384 -219 -480 -8 -13 -21 -24 -29 -24 -31 0 -68 123 -80
270 -3 36 -7 79 -9 95 -2 17 -7 78 -10 137 l-7 107 50 -14 c28 -7 53 -11 56
-8z m-1373 -169 c68 -79 126 -145 129 -148 3 -3 41 -45 85 -95 96 -108 78 -88
200 -221 55 -60 141 -151 191 -204 50 -52 126 -131 168 -175 43 -46 76 -88 76
-100 0 -19 -13 -29 -110 -90 -122 -77 -132 -79 -193 -36 -126 86 -297 143
-712 236 -223 50 -404 94 -441 106 l-32 10 19 87 c61 284 206 530 418 708 42
35 77 63 77 64 1 0 57 -64 125 -142z m1848 -665 c-87 -159 -175 -293 -234
-358 -135 -148 -156 -166 -204 -175 -30 -5 -51 -2 -82 11 -51 23 -219 195
-219 224 0 25 233 270 270 283 18 7 38 4 75 -10 50 -20 145 -28 197 -16 40 9
106 42 168 82 30 19 59 36 63 36 5 0 -11 -35 -34 -77z m-2374 -220 c33 -8 67
-16 75 -18 44 -9 130 -30 255 -60 77 -19 182 -44 234 -55 131 -29 401 -130
401 -151 0 -19 -53 -41 -181 -74 -145 -37 -208 -50 -309 -65 -145 -20 -190
-24 -306 -24 -118 -1 -122 0 -142 24 -30 36 -71 116 -98 187 -29 75 -33 98
-41 191 l-6 73 29 -7 c16 -3 56 -13 89 -21z m1557 -219 c167 -146 197 -215
132 -301 -44 -59 -406 -220 -557 -248 l-37 -7 49 51 c93 97 123 202 91 321
-13 49 -8 70 22 89 92 58 232 141 239 141 5 0 32 -21 61 -46z m-462 -214 c30
-56 -6 -157 -79 -223 -47 -42 -149 -96 -242 -127 -57 -20 -70 -21 -124 -10
-137 27 -320 102 -418 173 l-48 34 128 6 c70 3 139 8 153 11 13 3 42 8 65 11
126 18 226 43 360 90 170 60 190 63 205 35z"/>
<path d="M1445 5621 c-17 -10 -64 -54 -105 -98 -115 -122 -110 -106 -54 -159
27 -26 120 -115 208 -198 87 -83 161 -152 165 -154 12 -4 192 190 206 221 20
49 7 74 -94 171 -127 123 -220 209 -238 219 -28 17 -59 16 -88 -2z m52 -138
c16 -16 73 -71 128 -123 135 -128 132 -122 95 -161 l-30 -33 -27 25 c-15 13
-71 66 -124 118 -54 51 -109 103 -123 114 l-26 21 32 33 c18 18 35 33 39 33 4
0 20 -12 36 -27z"/>
<path d="M5528 5594 c-31 -28 -34 -35 -22 -45 8 -7 24 -25 35 -41 l21 -29 -23
-20 c-13 -11 -44 -39 -69 -62 -25 -23 -93 -87 -152 -141 -60 -54 -108 -104
-108 -110 0 -15 72 -86 87 -86 7 0 16 6 20 13 4 6 33 34 63 61 75 67 165 150
222 205 l48 45 40 -39 40 -39 30 29 c16 16 30 34 30 39 0 6 -26 38 -58 72 -31
34 -82 88 -112 121 l-56 61 -36 -34z"/>
<path d="M828 3735 c-3 -6 -18 -47 -32 -92 l-28 -83 -101 0 -102 0 39 -26 c39
-26 56 -40 102 -79 l24 -20 -30 -89 c-17 -49 -29 -91 -27 -92 1 -2 35 22 74
52 40 30 77 54 83 54 6 0 42 -23 81 -51 38 -28 72 -49 74 -47 3 3 -6 38 -20
78 -14 40 -25 81 -25 90 0 9 34 40 75 70 l75 55 -98 3 -98 3 -30 92 c-17 50
-33 87 -36 82z"/>
<path d="M6134 3653 l-29 -88 -99 -5 -99 -5 76 -55 c43 -30 77 -59 77 -65 0
-6 -12 -46 -26 -89 -14 -43 -23 -80 -20 -83 2 -3 38 20 78 50 l74 54 80 -57
c43 -32 80 -57 81 -57 0 1 -12 44 -29 95 -16 51 -28 94 -26 96 1 1 37 27 78
57 l74 54 -98 5 -99 5 -26 82 c-14 45 -29 84 -32 88 -4 3 -20 -34 -35 -82z"/>
<path d="M1258 2485 c-31 -18 -96 -54 -145 -81 -169 -91 -288 -156 -291 -159
-4 -3 80 -162 114 -217 28 -44 60 -68 91 -68 29 0 149 60 181 89 12 12 22 28
22 37 0 10 7 13 26 8 18 -5 46 4 97 29 132 65 145 98 85 214 -65 128 -99 183
-111 182 -7 0 -37 -16 -69 -34z m87 -165 c10 -22 16 -42 14 -43 -24 -20 -121
-67 -128 -63 -5 3 -18 22 -30 41 l-20 35 22 14 c51 31 112 63 118 60 3 -2 14
-21 24 -44z m-209 -138 c4 -13 5 -24 3 -26 -27 -20 -122 -65 -128 -61 -5 3
-18 21 -30 40 l-20 35 22 14 c12 7 42 24 67 38 l45 25 18 -21 c9 -12 20 -31
23 -44z"/>
<path d="M5586 2382 c-15 -30 -24 -58 -19 -62 13 -13 514 -263 517 -259 2 2
33 63 69 135 l66 131 -44 21 -44 21 -37 -72 c-20 -40 -37 -73 -39 -75 -1 -1
-85 39 -186 90 -101 51 -200 100 -220 109 l-36 17 -27 -56z"/>
<path d="M5312 1978 l-40 -51 97 -76 c53 -42 156 -124 230 -183 74 -59 136
-107 137 -105 1 1 43 54 94 117 l92 115 -38 31 -38 32 -49 -61 c-27 -34 -52
-63 -56 -65 -4 -1 -89 62 -189 142 -100 79 -185 147 -190 150 -5 3 -28 -17
-50 -46z"/>
<path d="M1467 1772 l-258 -155 43 -44 c23 -24 47 -43 53 -43 6 0 28 12 49 26
l38 26 44 -45 c24 -25 44 -49 44 -54 -1 -4 -14 -26 -30 -48 l-29 -40 47 -47
46 -48 163 248 c89 136 163 252 163 257 0 6 -26 36 -57 67 l-58 55 -258 -155z
m147 -104 c-37 -51 -69 -95 -71 -97 -2 -3 -17 10 -34 28 -16 18 -27 36 -24 40
12 12 180 120 188 121 4 0 -23 -42 -59 -92z"/>
<path d="M4960 1638 c-36 -28 -64 -55 -62 -62 2 -6 17 -40 34 -76 17 -36 53
-112 81 -170 27 -58 69 -147 93 -198 l44 -93 27 20 c16 11 39 29 53 40 l25 20
-25 47 -24 46 44 39 c25 21 52 39 61 39 8 0 28 -13 44 -30 16 -16 32 -30 35
-30 10 0 100 72 100 80 0 3 -62 56 -137 115 -76 60 -140 112 -143 115 -7 7
-96 78 -145 116 l-40 31 -65 -49z m270 -275 c0 -8 -55 -52 -65 -53 -8 0 -84
136 -114 204 -2 6 37 -25 88 -68 50 -43 91 -80 91 -83z"/>
<path d="M2114 1542 c-27 -4 -50 -29 -104 -117 -33 -52 -44 -80 -43 -107 1
-46 11 -60 80 -101 29 -17 53 -37 53 -44 0 -24 -62 -113 -78 -113 -10 0 -26 7
-37 16 -19 14 -19 15 -1 49 11 19 17 36 15 38 -2 2 -16 11 -31 20 -16 9 -39
24 -52 33 -24 15 -25 15 -56 -38 -22 -38 -29 -61 -25 -82 7 -40 19 -52 99
-103 137 -88 161 -85 235 27 29 45 58 93 64 109 17 45 -5 82 -74 126 -32 22
-59 44 -59 49 0 20 60 116 73 116 6 0 23 -9 36 -19 23 -17 23 -19 7 -50 -9
-17 -14 -36 -11 -40 5 -10 90 -61 99 -61 12 0 57 83 61 110 4 36 -20 68 -81
110 -83 55 -136 78 -170 72z"/>
<path d="M4500 1353 c-57 -21 -232 -98 -235 -104 -5 -7 210 -518 223 -531 12
-12 259 96 282 124 11 12 19 38 20 56 0 46 -66 186 -95 202 -18 9 -22 17 -16
29 11 22 8 35 -29 124 -17 42 -42 84 -53 92 -21 15 -68 19 -97 8z m30 -150
c37 -84 36 -90 -5 -107 -21 -9 -41 -16 -45 -16 -7 0 -60 117 -60 133 0 9 57
36 77 37 7 0 21 -21 33 -47z m104 -249 c15 -36 24 -69 21 -74 -9 -14 -76 -33
-85 -24 -5 5 -20 37 -34 72 l-25 62 32 14 c56 25 63 21 91 -50z"/>
<path d="M2577 1132 c-27 -86 -53 -170 -57 -187 -5 -16 -22 -71 -38 -122 l-29
-92 60 -20 c33 -12 62 -20 63 -18 1 1 16 47 34 102 17 55 38 118 45 140 l13
40 2 -35 c1 -19 4 -53 6 -75 5 -45 11 -122 13 -176 1 -35 2 -36 61 -52 69 -20
76 -19 73 8 0 11 -4 67 -8 125 -4 58 -8 118 -10 133 -3 22 13 48 78 130 45 56
91 110 101 121 20 20 20 20 -12 33 -17 7 -49 17 -70 21 l-39 9 -94 -118 c-51
-65 -95 -117 -96 -115 -2 2 12 52 31 112 55 173 56 157 -7 177 -29 9 -58 17
-63 17 -5 0 -31 -71 -57 -158z"/>
<path d="M3975 1180 c-22 -5 -66 -11 -98 -15 -32 -4 -72 -11 -89 -15 -16 -5
-33 -9 -37 -8 -37 4 -43 -2 -36 -44 4 -24 10 -46 14 -50 3 -3 26 -3 51 2 25 4
47 7 48 5 2 -2 17 -84 33 -182 52 -323 47 -303 78 -297 50 10 66 12 84 13 18
1 18 25 1 116 -3 11 -7 36 -10 55 -3 19 -7 46 -10 60 -2 14 -7 43 -10 65 -2
22 -11 74 -18 115 -7 41 -12 76 -10 78 1 2 24 7 51 10 52 8 48 2 44 80 -1 24
-14 26 -86 12z"/>
<path d="M3224 1142 c-5 -4 -10 -23 -10 -42 -6 -135 -22 -407 -28 -488 -2 -23
0 -45 5 -48 15 -9 47 -12 187 -19 l132 -6 0 46 c0 28 -5 47 -12 50 -7 2 -49 6
-93 9 -44 3 -80 5 -81 5 -1 1 0 18 2 39 1 20 3 54 3 75 l1 37 78 -2 77 -3 3
48 3 47 -38 1 c-21 1 -55 2 -76 2 l-38 1 2 73 2 74 91 -3 91 -3 3 48 3 47 -33
1 c-58 1 -182 9 -224 13 -22 2 -44 1 -50 -2z"/>
</g>
</svg>
