<svg xmlns="http://www.w3.org/2000/svg" viewBox="0 0 512 512"><circle cx="256" cy="256" fill="#ff8d5c" r="224" data-original="#ff8d5c" class=""></circle><path d="m256 32a226.3624 226.3624 0 0 0 -24.7421 1.3667c112.0673 12.3162 199.258 107.2854 199.258 222.6333s-87.1907 210.3171-199.258 222.6333a226.3624 226.3624 0 0 0 24.7421 1.3667c123.7118 0 224-100.2881 224-224s-100.2882-224-224-224z" fill="#ff774d" data-original="#ff774d" class=""></path><path d="m101.3879 299.3882a306.4744 306.4744 0 0 1 -.4572-55.7354c36.4582-.6967 74.4889-26.1853 118.4555-55.6694 55.0923-36.9463 117.5352-78.8213 195.4263-85.3926l4.0728-.344q-4.4674-4.731-9.2022-9.1972c-78.4412 7.914-140.77 49.6789-195.8667 86.6281-42.1488 28.2659-78.6708 52.7444-111.8754 53.9444 7.8566-66.2676 38.94-135.0039 106.5629-196.5591q-10.2726 2.218-20.181 5.3537c-33.7379 33.4742-86.4282 96.6848-97.2174 190.837-46.0107-4.8844-41.0248-53.4614-30.75-86.386a222.7346 222.7346 0 0 0 -16.7429 37.7729c-.7471 33.71 14.4413 55.2322 46.5159 58.5669a309.2821 309.2821 0 0 0 .4769 54.7173c-32.0884-4.723-48.84-10.7179-56.9186-14.3845q.7131 5.8153 1.7171 11.5371c8.098 3.1091 24.6445 8.5826 56.3448 13.0183a342.4134 342.4134 0 0 0 12.4645 57.57c-8.0825-.4788-25.0244-.422-38.6863 8.2447q2.6489 4.27 5.4788 8.4118c9.47-5.9445 23.1447-7.83 36.55-6.3337a370.1032 370.1032 0 0 0 33.7985 72.4726q8.8174 5.2637 18.1376 9.7325a345.445 345.445 0 0 1 -40.4761-80.1412c28.5952 7.0635 59.754 27.9576 94.802 51.4615 23.9922 16.0893 49.3606 33.0891 76.8259 47.8176q8.04-1.2484 15.8865-3.0544c-31.4395-15.7283-60.1753-34.9844-87.1426-53.0689-38.21-25.6245-71.9358-48.2263-104.0437-54.1667a336.7663 336.7663 0 0 1 -12.7927-57.553c108.63 12.9036 287.9889 1.6258 376.8425-36.9783q.4053-5.5617.54-11.1958c-83.429 38.6041-267.3694 51.9039-378.5457 38.0738z" fill="#414344" data-original="#414344" class=""></path></svg>