<?xml version="1.0" encoding="UTF-8" standalone="no"?>
<svg
   xmlns:dc="http://purl.org/dc/elements/1.1/"
   xmlns:cc="http://creativecommons.org/ns#"
   xmlns:rdf="http://www.w3.org/1999/02/22-rdf-syntax-ns#"
   xmlns:svg="http://www.w3.org/2000/svg"
   xmlns="http://www.w3.org/2000/svg"
   viewBox="0 0 721.85333 721.85333"
   height="721.85333"
   width="721.85333"
   xml:space="preserve"
   id="svg2"
   version="1.1"><metadata
     id="metadata8"><rdf:RDF><cc:Work
         rdf:about=""><dc:format>image/svg+xml</dc:format><dc:type
           rdf:resource="http://purl.org/dc/dcmitype/StillImage" /></cc:Work></rdf:RDF></metadata><defs
     id="defs6" /><g
     transform="matrix(1.3333333,0,0,-1.3333333,0,721.85333)"
     id="g10"><g
       transform="scale(0.1)"
       id="g12"><path
         id="path14"
         style="fill:#f25422;fill-opacity:1;fill-rule:nonzero;stroke:none"
         d="m 3032.77,1495.4 c -2.74,7.71 -23.67,16.03 -32.91,13.15 -50.49,-15.73 -99.6,-35.82 -149.8,-52.54 -43.55,-14.5 -87.41,-28.73 -132.07,-39 -45.35,-10.43 -91.72,-16.81 -137.88,-23.24 -48.27,-6.73 -96.76,-15.06 -145.3,-16.09 -37.3,-0.8 -74.67,-0.56 -112.02,0.38 132.82,-105.8 293.56,-152.81 405.24,-172.42 22.7,5.45 45.25,11.69 67.46,19.53 34.99,12.35 68.36,29.52 101.92,45.64 70.51,33.87 122.94,85.28 143.28,162.41 5.01,19.01 -1.01,42.74 -7.92,62.18" /><path
         id="path16"
         style="fill:#f25422;fill-opacity:1;fill-rule:nonzero;stroke:none"
         d="m 3363.28,1682.12 c -18.38,17.18 -38.99,6.56 -56.84,-4.31 -49.91,-30.41 -99.2,-61.81 -149.08,-92.24 -24.78,-15.12 -30.27,-29.78 -21.03,-57.75 31.37,-95.04 9.93,-178.62 -56.87,-251.16 -17.53,-19.03 -37.06,-36.21 -56.13,-53.81 163.24,37.09 316.47,100.63 454.93,186.08 42.78,39.84 54.26,93.15 13.46,145.51 -36.83,47.27 -84.29,86.43 -128.44,127.68" /><path
         id="path18"
         style="fill:#f25422;fill-opacity:1;fill-rule:nonzero;stroke:none"
         d="m 3700.57,1984.96 c -25.32,12.49 -50.64,6.42 -69.75,-13.65 -54.38,-57.1 -109.26,-113.75 -165.32,-169.19 -24.45,-24.18 -26.93,-39.6 -2.77,-64.94 37.31,-39.13 73.38,-79.59 112.66,-116.64 48.5,-45.75 115.94,-51.3 159.53,-10.74 49.86,46.4 95.04,98.47 137.9,151.59 33.38,41.35 61.68,87.12 89.36,132.68 31.38,51.64 59.62,105.19 88.99,158.03 2.38,4.27 2.94,9.56 3.58,11.76 -43.23,-25.92 -85.11,-55.94 -130.98,-77.4 -72.91,-34.12 -148.66,-38.29 -223.2,-1.5" /><path
         id="path20"
         style="fill:#f25422;fill-opacity:1;fill-rule:nonzero;stroke:none"
         d="m 4102.17,2625.14 c -18.52,-11 -38.78,-10.94 -53.83,-18.94 -23.14,-12.31 -56.4,-22.96 -70.9,-19.35 -2.22,0.51 -5.1,1.86 -7.66,2.75 -10.43,-34.14 -21.17,-68.18 -32.8,-101.91 -18,-52.17 -38.27,-104.23 -64.01,-152.9 -38.64,-73.08 -83.19,-143.02 -124.75,-214.57 -16.53,-28.46 -8.48,-48.26 24.25,-50.9 28.67,-2.31 59.38,-1.82 86.72,6.03 96.06,27.57 160.05,98.64 212.91,177.05 59.68,88.52 94.2,189.72 112.1,294.82 3.9,22.95 7.13,46.04 9.86,69.17 1.23,24.93 1.91,50.01 1.91,75.24 0,3.72 -0.25,7.38 -0.28,11.09 -39.37,-42.83 -72.4,-65.04 -93.52,-77.58" /><path
         id="path22"
         style="fill:#f25422;fill-opacity:1;fill-rule:nonzero;stroke:none"
         d="m 3632.58,2205.6 c 3.73,-8.72 10.64,-16.08 16.07,-24.07 8.93,7.42 20.96,13.11 26.27,22.57 28.81,51.22 58.54,102.18 83.05,155.49 33.29,72.42 64.35,146 92.86,220.44 -28.02,1.7 -57.3,9.4 -89,20.94 -26.73,9.71 -60.13,25.58 -94.08,44.2 -19.5,-7.19 -50.22,-0.13 -94.82,14.7 0.04,-26.8 0.27,-53.59 1.77,-80.31 3.04,-53.9 10.01,-107.56 13.95,-161.42 5.32,-72.87 14.9,-144.73 43.93,-212.54" /><path
         id="path24"
         style="fill:#f25422;fill-opacity:1;fill-rule:nonzero;stroke:none"
         d="m 2936.5,2281.31 c 127.71,-136.33 257.21,-271 386.38,-405.95 25.29,-26.43 40.16,-25.16 66.89,0.37 27.61,26.36 57.29,50.69 83.5,78.34 31.15,32.85 60.04,67.91 88.97,102.79 13.57,16.35 9.44,32.03 -0.61,51.03 -18.54,34.99 -37.56,71.44 -46.25,109.6 -15.68,68.92 -24.34,139.47 -35,209.49 -3.86,25.29 -6.4,50.94 -7.13,76.5 -1.52,53.04 -0.77,106.14 -2.17,159.18 -0.3,11.13 -0.91,22.25 -1.37,33.37 -182.29,63.24 -480.27,148.38 -799.72,17.92 -27.13,-11.08 -53.11,-23.4 -78.24,-36.57 49.17,-58.46 98.06,-117.14 147.95,-174.96 64.45,-74.71 129.37,-149.12 196.8,-221.11" /><path
         id="path26"
         style="fill:#f25422;fill-opacity:1;fill-rule:nonzero;stroke:none"
         d="m 2497.79,2620.63 c -241.59,-167.06 -370.19,-431.7 -398.83,-665.58 18.81,-5.37 37.56,-11 56.51,-15.88 76.43,-19.7 153.74,-36.02 230.68,-53.78 82.14,-18.96 164.57,-36.71 246.33,-57.18 68.65,-17.18 137.29,-35.1 204.51,-57.09 71.14,-23.28 138.88,-54.63 197.97,-102.67 9.03,-7.34 27.45,-9.25 39.15,-5.74 18.14,5.42 34.6,17.06 51.11,27.15 37.77,23.08 76.06,45.51 112.32,70.81 19.14,13.35 16.65,32.84 0.02,49.89 -65.78,67.44 -131.85,134.62 -196.47,203.17 -73.84,78.34 -146.67,157.65 -219.16,237.25 -53.76,59.04 -106.47,119.03 -159.26,178.93 -46.35,52.6 -92.67,105.24 -138.1,158.63 -9.03,10.61 -17.81,21.43 -26.78,32.09" /><path
         id="path28"
         style="fill:#f25422;fill-opacity:1;fill-rule:nonzero;stroke:none"
         d="m 2645.84,1515.53 c 71.76,13.55 142.17,34.36 212.98,52.73 18.66,4.83 37.03,11.45 54.64,19.27 7.12,3.16 16.31,11.67 16.4,17.87 0.1,6.27 -8.68,15.78 -15.67,18.56 -70.79,28.14 -141.31,57.25 -213.37,81.75 -40.13,13.65 -83.16,18.57 -124.66,28.4 -87.15,20.64 -174.15,42 -261.24,62.92 -74.06,17.79 -148.55,33.97 -222.14,53.46 0.47,-63.42 8.79,-122.8 25.05,-174.9 23.67,-75.86 59.12,-139.86 101.77,-194.04 1.31,-0.05 2.62,-0.21 3.93,-0.26 62.82,-2.41 126.17,-2.74 188.72,2.61 78.22,6.7 156.45,17.07 233.59,31.63" /><path
         id="path30"
         style="fill:#2b6dbe;fill-opacity:1;fill-rule:nonzero;stroke:none"
         d="m 2706.94,122.309 c -1427.45,0 -2584.631,1157.181 -2584.631,2584.631 0,1427.45 1157.181,2584.63 2584.631,2584.63 1427.45,0 2584.62,-1157.18 2584.62,-2584.63 0,-1427.45 -1157.17,-2584.631 -2584.62,-2584.631 z m 0,5291.571 C 1211.93,5413.88 0,4201.94 0,2706.94 0,1211.94 1211.93,0 2706.94,0 c 1495,0 2706.94,1211.94 2706.94,2706.94 0,1495 -1211.94,2706.94 -2706.94,2706.94" /><path
         id="path32"
         style="fill:#ffffff;fill-opacity:1;fill-rule:nonzero;stroke:none"
         d="m 2706.94,241.078 c -1361.86,0 -2465.87,1104.002 -2465.87,2465.862 0,1361.86 1104.01,2465.87 2465.87,2465.87 1361.86,0 2465.86,-1104.01 2465.86,-2465.87 0,-1361.86 -1104,-2465.862 -2465.86,-2465.862 z m 0,5050.492 c -1427.45,0 -2584.631,-1157.18 -2584.631,-2584.63 0,-1427.45 1157.181,-2584.631 2584.631,-2584.631 1427.45,0 2584.62,1157.181 2584.62,2584.631 0,1427.45 -1157.17,2584.63 -2584.62,2584.63" /><path
         id="path34"
         style="fill:#2b6dbe;fill-opacity:1;fill-rule:nonzero;stroke:none"
         d="m 1662.04,4401.18 -136.07,142.1 73.31,-182.55 z" /><path
         id="path36"
         style="fill:#2b6dbe;fill-opacity:1;fill-rule:nonzero;stroke:none"
         d="m 1344.97,4035.55 c 8.91,9.37 9.02,18.17 0.35,26.42 l -203.06,192.87 c -8.67,8.23 -17.46,7.65 -26.37,-1.72 l -39.07,-41.12 229.09,-217.57 39.06,41.12" /><path
         id="path38"
         style="fill:#2b6dbe;fill-opacity:1;fill-rule:nonzero;stroke:none"
         d="m 851.629,1739.61 -109.074,-59.44 28.191,-51.7 c 6.188,-11.35 14.535,-14.16 25.039,-8.42 l 78.172,42.62 c 5.469,2.96 8.672,6.34 9.609,10.13 0.926,3.77 -0.316,8.83 -3.757,15.15 l -28.18,51.66" /><path
         id="path40"
         style="fill:#2b6dbe;fill-opacity:1;fill-rule:nonzero;stroke:none"
         d="m 2745.59,4926.19 -56.72,0.92 -5.13,-315.91 56.72,-0.92 c 12.92,-0.19 19.49,5.67 19.68,17.66 l 4.54,279.99 c 0.19,11.98 -6.18,18.07 -19.09,18.26" /><path
         id="path42"
         style="fill:#2b6dbe;fill-opacity:1;fill-rule:nonzero;stroke:none"
         d="m 966.648,1713.19 75.022,40.9 c 10.5,5.73 12.67,14.28 6.48,25.62 l -28.19,51.7 -106.542,-58.1 28.18,-51.7 c 6.183,-11.35 14.535,-14.16 25.05,-8.42" /><path
         id="path44"
         style="fill:#2b6dbe;fill-opacity:1;fill-rule:nonzero;stroke:none"
         d="m 3567.1,780.602 c -2.43,5.707 -5.49,9.238 -9.15,10.546 -3.67,1.282 -8.81,0.543 -15.43,-2.257 L 3488.3,765.91 3536.78,651.539 3591,674.52 c 11.89,5.039 15.51,13.07 10.84,24.101 l -34.74,81.981" /><path
         id="path46"
         style="fill:#2b6dbe;fill-opacity:1;fill-rule:nonzero;stroke:none"
         d="m 4048.9,1053.61 -148.62,128.93 89.87,-175.02 z" /><path
         id="path48"
         style="fill:#2b6dbe;fill-opacity:1;fill-rule:nonzero;stroke:none"
         d="m 1192.02,1210.56 113.92,160.42 -165.49,-106.39 z" /><path
         id="path50"
         style="fill:#2b6dbe;fill-opacity:1;fill-rule:nonzero;stroke:none"
         d="m 3525.9,877.789 -33.34,78.66 c -4.67,11 -12.96,14 -24.86,8.961 l -54.21,-22.98 47.35,-111.719 54.22,22.98 c 11.91,5.039 15.52,13.071 10.84,24.098" /><path
         id="path52"
         style="fill:#2b6dbe;fill-opacity:1;fill-rule:nonzero;stroke:none"
         d="m 4077.49,1490.77 63.43,79.81 298.55,-237.14 81.75,102.89 59.03,-46.89 -145.16,-182.74 z m 92.79,-541.809 -63.42,55.209 -81.92,-64.26 38.56,-74.75 -79.66,-62.469 -200.57,423.099 102.81,80.68 365.54,-293.69 z m -524.71,-327.762 -174.54,-73.949 -178.22,420.461 174.53,73.979 c 55.98,23.74 94.24,11.34 114.8,-37.14 l 31.38,-74.038 c 13.84,-32.614 12.59,-57.313 -3.7,-74.114 23.02,0.922 40.96,-13.828 53.86,-44.238 l 34.74,-81.98 c 20.73,-48.93 3.11,-85.239 -52.85,-108.981 z m -519.68,-162.66 -101.36,-16.48 -61.14,376.382 -82.22,-13.359 -12.08,74.398 266.49,43.309 12.09,-74.418 -82.92,-13.492 z m -398.68,339.242 -140.51,7.91 -6.25,-111.152 119.74,-6.73 -4.24,-75.25 -119.73,6.722 -6.69,-119.019 146.26,-8.223 -4.24,-75.289 -248.78,13.988 25.64,455.973 243.04,-13.641 z m -540.83,-323.562 -105.62,32.769 -15.84,247 151.15,189.172 105.62,-32.73 -154.58,-188.129 z m -289.42,89.793 135.31,436.178 97.39,-30.221 -135.31,-436.168 z m -81.09,449.498 -31.41,-50.651 -87.26,54.091 23.84,38.44 c 6.3,10.17 3.97,18.68 -7.03,25.5 l -20.73,12.85 c -11,6.82 -19.63,5.13 -25.95,-5.04 l -42.37,-68.34 c -3.29,-5.29 -4.4,-9.81 -3.35,-13.58 1.05,-3.73 4.64,-7.491 10.74,-11.28 l 52.48,-32.539 c 26.03,-16.16 41.28,-33.34 45.74,-51.609 4.43,-18.262 -0.14,-38.34 -13.75,-60.34 l -56.77,-91.543 c -28,-45.137 -67.64,-51.828 -118.91,-20.047 l -73.84,45.797 c -51.66,32.043 -63.49,70.64 -35.49,115.801 l 31.03,50.05 87.28,-54.129 -23.85,-38.441 c -6.31,-10.199 -3.97,-18.68 7.02,-25.5 l 20.75,-12.84 c 10.98,-6.82 19.61,-5.129 25.93,5.031 l 43.52,70.188 c 3.28,5.262 4.38,9.793 3.33,13.551 -1.05,3.761 -4.62,7.519 -10.72,11.308 l -53.71,33.282 c -48.01,29.8 -57.89,67.45 -29.63,113.03 l 54.87,88.48 c 27.75,44.75 67.26,51.23 118.53,19.45 l 74.44,-46.16 c 51.27,-31.81 63.02,-70.06 35.27,-114.81 z m -716.27,66.14 48.81,68.43 -71.89,75.32 -70.63,-45.61 -69.921,73.25 401.701,240.59 90.25,-94.54 -256.91,-392.25 z m -184.733,489.98 -78.187,-42.62 c -46.649,-25.44 -84.532,-11.44 -113.633,41.92 l -90.731,166.45 400.964,218.59 90.75,-166.42 c 29.09,-53.39 20.53,-92.69 -25.71,-117.87 l -70.6,-38.5 c -31.107,-16.96 -55.81,-18.17 -74.107,-3.61 3.172,-22.82 -9.754,-42.13 -38.746,-57.94 z m -475.961,1183.14 155.621,0.46 48.528,147.87 48.527,-147.87 155.617,-0.46 -125.629,-91.84 47.653,-148.14 -126.168,91.1 -126.172,-91.1 47.652,148.14 z m 647.224,1571.21 c 41.87,44.08 81.9,48 120.07,11.73 l 216.08,-205.21 c 38.52,-36.62 36.85,-76.94 -5.02,-121.03 l -131.04,-137.98 -331.142,314.54 z m 437.18,344.02 336.8,-326.2 -86.9,-56.04 -58.03,60.85 -87.5,-56.45 31.46,-77.96 -85.09,-54.86 -160.58,439.87 z m 377.11,182.93 82.57,29.3 c 56.85,20.17 94.08,5.41 111.67,-44.18 l 19.94,-56.2 -96.77,-34.33 -15.13,42.65 c -4,11.25 -12.09,14.76 -24.28,10.42 l -23,-8.16 c -12.19,-4.33 -16.27,-12.14 -12.27,-23.39 l 26.88,-75.8 c 2.09,-5.86 4.93,-9.56 8.51,-11.09 3.59,-1.5 8.77,-1.09 15.53,1.34 l 58.2,20.65 c 28.86,10.24 51.83,11.38 68.86,3.48 17.04,-7.94 29.87,-24.07 38.52,-48.45 l 36.02,-101.49 c 17.77,-50.08 -1.77,-85.2 -58.61,-105.38 l -81.89,-29.07 c -57.3,-20.3 -94.83,-5.45 -112.6,44.63 l -19.7,55.49 96.79,34.36 15.13,-42.65 c 4,-11.28 12.09,-14.76 24.27,-10.42 l 23.01,8.16 c 12.18,4.3 16.27,12.11 12.26,23.4 l -27.61,77.8 c -2.08,5.86 -4.92,9.56 -8.51,11.09 -3.58,1.53 -8.76,1.09 -15.52,-1.3 l -59.56,-21.14 c -53.24,-18.9 -88.82,-3.09 -106.75,47.46 l -34.82,98.11 c -17.59,49.63 2.03,84.54 58.86,104.71 z m 308.62,-539.8 58.25,19.76 c 80,27.13 170.28,42.08 254.22,42.08 0,0 -0.01,0 0,0 59.4,-0.01 114.34,-7.44 163.28,-22.11 9.93,-2.97 20.05,-6.64 30.39,-10.67 85.69,-0.42 169.79,-7.54 251.87,-20.68 72.87,81.66 112.71,117.49 149.81,120.55 2.64,0.26 5.4,0.4 8.29,0.4 v 0 c 60.46,0 178.34,-66.84 204.09,-126.89 9.04,-21.11 34.87,-74.62 57.93,-121.8 562.4,-258.02 953.23,-825.55 953.23,-1484.83 0,-902.14 -731.33,-1633.46 -1633.46,-1633.46 -902.14,0 -1633.46,731.32 -1633.46,1633.46 0,726.18 474.01,1341.35 1129.39,1553.82 z m 378.29,688.02 190.26,-3.09 c 60.79,-0.99 90.77,-27.8 89.91,-80.45 l -4.83,-297.97 c -0.86,-53.13 -31.69,-79.21 -92.47,-78.22 l -190.26,3.09 z m 525.42,-35.26 237.15,-54.91 -17.02,-73.48 -137.11,31.79 -25.11,-108.44 116.82,-27.06 -17.01,-73.44 -116.82,27.06 -26.9,-116.12 142.7,-33.09 -17.02,-73.44 -242.74,56.23 z m 454.65,-132.14 92.67,-42.5 -158.92,-346.6 119.43,-54.76 -31.43,-68.56 -212.12,97.28 z m 394.53,-206.62 198.53,-144.58 -44.39,-60.94 -115.51,84.11 -73.98,-101.58 96.95,-70.61 -41.86,-57.43 -96.93,70.57 -108.64,-149.18 -83,60.44 z m 341.3,-272.27 182.19,-199.25 -55.65,-50.87 -56.69,61.99 -281.39,-257.29 -69.3,75.77 281.39,257.32 -56.21,61.46 z m 417.47,-1599.63 48.53,147.87 48.52,-147.87 155.62,-0.46 -125.63,-91.84 47.66,-148.14 -126.17,91.1 -126.17,-91.1 47.65,148.14 -125.63,91.84 z m -15.87,-1162.95 -407.96,205.24 45.82,91.1 340.63,-171.39 59.04,117.39 67.35,-33.88 z m 467.97,1116.66 c 0,1361.86 -1104,2465.87 -2465.86,2465.87 -1361.86,0 -2465.87,-1104.01 -2465.87,-2465.87 0,-1361.86 1104.01,-2465.87 2465.87,-2465.87 1361.86,0 2465.86,1104.01 2465.86,2465.87" /><path
         id="path54"
         style="fill:#ffffff;fill-opacity:1;fill-rule:nonzero;stroke:none"
         d="m 4022.39,3983.21 69.3,-75.77 281.39,257.29 56.69,-61.99 55.65,50.87 -182.19,199.25 -55.66,-50.87 56.21,-61.46 -281.39,-257.32" /><path
         id="path56"
         style="fill:#ffffff;fill-opacity:1;fill-rule:nonzero;stroke:none"
         d="m 3884.74,4344.67 96.93,-70.57 41.86,57.43 -96.95,70.61 73.98,101.58 115.51,-84.11 44.39,60.94 -198.53,144.58 -268.83,-369.2 83,-60.44 108.64,149.18" /><path
         id="path58"
         style="fill:#ffffff;fill-opacity:1;fill-rule:nonzero;stroke:none"
         d="m 3620.58,4387.89 -119.43,54.76 158.92,346.6 -92.67,42.5 -190.37,-415.14 212.12,-97.28 31.43,68.56" /><path
         id="path60"
         style="fill:#ffffff;fill-opacity:1;fill-rule:nonzero;stroke:none"
         d="m 3269.45,4536.2 -142.7,33.09 26.9,116.12 116.82,-27.06 17.01,73.44 -116.82,27.06 25.11,108.44 137.11,-31.79 17.02,73.48 -237.15,54.91 -103.06,-444.9 242.74,-56.23 17.02,73.44" /><path
         id="path62"
         style="fill:#ffffff;fill-opacity:1;fill-rule:nonzero;stroke:none"
         d="m 2760.14,4627.94 c -0.19,-11.99 -6.76,-17.85 -19.68,-17.66 l -56.72,0.92 5.13,315.91 56.72,-0.92 c 12.91,-0.19 19.28,-6.28 19.09,-18.26 z m 102.53,-10.3 4.83,297.97 c 0.86,52.65 -29.12,79.46 -89.91,80.45 l -190.26,3.09 -7.39,-456.64 190.26,-3.09 c 60.78,-0.99 91.61,25.09 92.47,78.22" /><path
         id="path64"
         style="fill:#ffffff;fill-opacity:1;fill-rule:nonzero;stroke:none"
         d="m 1876.38,4648.11 c 17.93,-50.55 53.51,-66.36 106.75,-47.46 l 59.56,21.14 c 6.76,2.39 11.94,2.83 15.52,1.3 3.59,-1.53 6.43,-5.23 8.51,-11.09 l 27.61,-77.8 c 4.01,-11.29 -0.08,-19.1 -12.26,-23.4 l -23.01,-8.16 c -12.18,-4.34 -20.27,-0.86 -24.27,10.42 l -15.13,42.65 -96.79,-34.36 19.7,-55.49 c 17.77,-50.08 55.3,-64.93 112.6,-44.63 l 81.89,29.07 c 56.84,20.18 76.38,55.3 58.61,105.38 l -36.02,101.49 c -8.65,24.38 -21.48,40.51 -38.52,48.45 -17.03,7.9 -40,6.76 -68.86,-3.48 l -58.2,-20.65 c -6.76,-2.43 -11.94,-2.84 -15.53,-1.34 -3.58,1.53 -6.42,5.23 -8.51,11.09 l -26.88,75.8 c -4,11.25 0.08,19.06 12.27,23.39 l 23,8.16 c 12.19,4.34 20.28,0.83 24.28,-10.42 l 15.13,-42.65 96.77,34.33 -19.94,56.2 c -17.59,49.59 -54.82,64.35 -111.67,44.18 l -82.57,-29.3 c -56.83,-20.17 -76.45,-55.08 -58.86,-104.71 l 34.82,-98.11" /><path
         id="path66"
         style="fill:#ffffff;fill-opacity:1;fill-rule:nonzero;stroke:none"
         d="m 1662.04,4401.18 -62.76,-40.45 -73.31,182.55 z m -2.9,-188.98 -31.46,77.96 87.5,56.45 58.03,-60.85 86.9,56.04 -336.8,326.2 -109.84,-70.79 160.58,-439.87 85.09,54.86" /><path
         id="path68"
         style="fill:#ffffff;fill-opacity:1;fill-rule:nonzero;stroke:none"
         d="m 1115.89,4253.12 c 8.91,9.37 17.7,9.95 26.37,1.72 l 203.06,-192.87 c 8.67,-8.25 8.56,-17.05 -0.35,-26.42 l -39.06,-41.12 -229.09,217.57 z m 301.37,-243.65 c 41.87,44.09 43.54,84.41 5.02,121.03 l -216.08,205.21 c -38.17,36.27 -78.2,32.35 -120.07,-11.73 l -131.052,-137.95 331.142,-314.54 131.04,137.98" /><path
         id="path70"
         style="fill:#ffffff;fill-opacity:1;fill-rule:nonzero;stroke:none"
         d="m 4643.06,2512.79 126.17,91.1 126.17,-91.1 -47.66,148.14 125.63,91.84 -155.62,0.46 -48.52,147.87 -48.53,-147.87 -155.62,-0.46 125.63,-91.84 -47.65,-148.14" /><path
         id="path72"
         style="fill:#ffffff;fill-opacity:1;fill-rule:nonzero;stroke:none"
         d="m 643.055,2603.89 126.168,-91.1 -47.653,148.14 125.629,91.84 -155.617,0.46 -48.527,147.87 -48.528,-147.87 -155.621,-0.46 125.629,-91.84 -47.652,-148.14 126.172,91.1" /><path
         id="path74"
         style="fill:#ffffff;fill-opacity:1;fill-rule:nonzero;stroke:none"
         d="m 4521.22,1436.33 -81.75,-102.89 -298.55,237.14 -63.43,-79.81 357.6,-284.07 145.16,182.74 -59.03,46.89" /><path
         id="path76"
         style="fill:#ffffff;fill-opacity:1;fill-rule:nonzero;stroke:none"
         d="m 4683.32,1715.23 -340.63,171.39 -45.82,-91.1 407.96,-205.24 104.88,208.46 -67.35,33.88 -59.04,-117.39" /><path
         id="path78"
         style="fill:#ffffff;fill-opacity:1;fill-rule:nonzero;stroke:none"
         d="m 4048.9,1053.61 -58.75,-46.09 -89.87,175.02 z m -265.63,172.18 200.57,-423.099 79.66,62.469 -38.56,74.75 81.92,64.26 63.42,-55.209 81.34,63.819 -365.54,293.69 -102.81,-80.68" /><path
         id="path80"
         style="fill:#ffffff;fill-opacity:1;fill-rule:nonzero;stroke:none"
         d="m 3591,674.52 -54.22,-22.981 -48.48,114.371 54.22,22.981 c 6.62,2.8 11.76,3.539 15.43,2.257 3.66,-1.308 6.72,-4.839 9.15,-10.546 l 34.74,-81.981 c 4.67,-11.031 1.05,-19.062 -10.84,-24.101 z m -130.16,156.191 -47.35,111.719 54.21,22.98 c 11.9,5.039 20.19,2.039 24.86,-8.961 l 33.34,-78.66 c 4.68,-11.027 1.07,-19.059 -10.84,-24.098 z m 202.84,-18.551 c -12.9,30.41 -30.84,45.16 -53.86,44.238 16.29,16.801 17.54,41.5 3.7,74.114 l -31.38,74.038 c -20.56,48.48 -58.82,60.88 -114.8,37.14 l -174.53,-73.979 178.22,-420.461 174.54,73.949 c 55.96,23.742 73.58,60.051 52.85,108.981 l -34.74,81.98" /><path
         id="path82"
         style="fill:#ffffff;fill-opacity:1;fill-rule:nonzero;stroke:none"
         d="m 3135.58,922.789 -266.49,-43.309 12.08,-74.398 82.22,13.359 61.14,-376.382 101.36,16.48 -61.14,376.34 82.92,13.492 -12.09,74.418" /><path
         id="path84"
         style="fill:#ffffff;fill-opacity:1;fill-rule:nonzero;stroke:none"
         d="m 2462.77,430.738 248.78,-13.988 4.24,75.289 -146.26,8.223 6.69,119.019 119.73,-6.722 4.24,75.25 -119.74,6.73 6.25,111.152 140.51,-7.91 4.24,75.289 -243.04,13.641 -25.64,-455.973" /><path
         id="path86"
         style="fill:#ffffff;fill-opacity:1;fill-rule:nonzero;stroke:none"
         d="m 2216.07,943.16 -151.15,-189.172 15.84,-247 105.62,-32.769 -19.27,248.082 154.58,188.129 -105.62,32.73" /><path
         id="path88"
         style="fill:#ffffff;fill-opacity:1;fill-rule:nonzero;stroke:none"
         d="m 2032.27,1000.19 -135.31,-436.178 97.39,-30.211 135.31,436.168 -97.39,30.221" /><path
         id="path90"
         style="fill:#ffffff;fill-opacity:1;fill-rule:nonzero;stroke:none"
         d="m 1780.6,1128.32 -74.44,46.16 c -51.27,31.78 -90.78,25.3 -118.53,-19.45 l -54.87,-88.48 c -28.26,-45.58 -18.38,-83.23 29.63,-113.03 l 53.71,-33.282 c 6.1,-3.789 9.67,-7.547 10.72,-11.308 1.05,-3.758 -0.05,-8.289 -3.33,-13.551 l -43.52,-70.188 c -6.32,-10.16 -14.95,-11.851 -25.93,-5.031 L 1533.29,833 c -10.99,6.82 -13.33,15.301 -7.02,25.5 l 23.85,38.441 -87.28,54.129 -31.03,-50.05 c -28,-45.161 -16.17,-83.758 35.49,-115.801 l 73.84,-45.797 c 51.27,-31.781 90.91,-25.09 118.91,20.047 l 56.77,91.543 c 13.61,22 18.18,42.078 13.75,60.34 -4.46,18.269 -19.71,35.449 -45.74,51.609 l -52.48,32.539 c -6.1,3.789 -9.69,7.55 -10.74,11.28 -1.05,3.77 0.06,8.29 3.35,13.58 l 42.37,68.34 c 6.32,10.17 14.95,11.86 25.95,5.04 l 20.73,-12.85 c 11,-6.82 13.33,-15.33 7.03,-25.5 l -23.84,-38.44 87.26,-54.091 31.41,50.651 c 27.75,44.75 16,83 -35.27,114.81" /><path
         id="path92"
         style="fill:#ffffff;fill-opacity:1;fill-rule:nonzero;stroke:none"
         d="m 1192.02,1210.56 -51.57,54.03 165.49,106.39 z m 145.65,281.07 -401.701,-240.59 69.921,-73.25 70.63,45.61 71.89,-75.32 -48.81,-68.43 71.41,-74.81 256.91,392.25 -90.25,94.54" /><path
         id="path94"
         style="fill:#ffffff;fill-opacity:1;fill-rule:nonzero;stroke:none"
         d="m 941.598,1721.61 -28.18,51.7 106.542,58.1 28.19,-51.7 c 6.19,-11.34 4.02,-19.89 -6.48,-25.62 l -75.022,-40.9 c -10.515,-5.74 -18.867,-2.93 -25.05,8.42 z m -67.641,-58.94 -78.172,-42.62 c -10.504,-5.74 -18.851,-2.93 -25.039,8.42 l -28.191,51.7 109.074,59.44 28.18,-51.66 c 3.441,-6.32 4.683,-11.38 3.757,-15.15 -0.937,-3.79 -4.14,-7.17 -9.609,-10.13 z m 153.763,-31.49 70.6,38.5 c 46.24,25.18 54.8,64.48 25.71,117.87 l -90.75,166.42 -400.964,-218.59 90.731,-166.45 c 29.101,-53.36 66.984,-67.36 113.633,-41.92 l 78.187,42.62 c 28.992,15.81 41.918,35.12 38.746,57.94 18.297,-14.56 43,-13.35 74.107,3.61" /><path
         id="path96"
         style="fill:#ffffff;fill-opacity:1;fill-rule:nonzero;stroke:none"
         d="m 2308.29,4133.33 c 1.58,-5.33 3.4,-10.53 5.26,-15.69 0.93,-2.57 1.85,-5.15 2.84,-7.67 1.76,-4.49 3.62,-8.91 5.55,-13.26 1.44,-3.19 2.91,-6.34 4.43,-9.46 1.78,-3.67 3.56,-7.33 5.45,-10.89 2.08,-3.92 4.25,-7.73 6.45,-11.51 1.54,-2.67 3.04,-5.4 4.63,-7.99 3.89,-6.36 7.89,-12.55 11.99,-18.45 26.3,-41.71 78.42,-88.98 93.85,-98.64 2.28,-1.42 4.58,-2.18 6.86,-2.67 0.64,-0.14 1.28,-0.2 1.91,-0.27 1.62,-0.18 3.21,-0.11 4.76,0.1 0.75,0.11 1.52,0.16 2.24,0.34 1.68,0.44 3.25,1.1 4.74,1.9 0.41,0.22 0.88,0.35 1.27,0.59 1.83,1.14 3.47,2.54 4.86,4.11 0.36,0.4 0.58,0.85 0.9,1.27 0.95,1.24 1.78,2.52 2.39,3.88 0.28,0.63 0.45,1.28 0.65,1.93 0.39,1.24 0.63,2.5 0.69,3.77 0.04,0.7 0.05,1.38 -0.02,2.07 -0.14,1.31 -0.55,2.58 -1.1,3.84 -0.25,0.59 -0.41,1.21 -0.77,1.78 -1.11,1.78 -2.59,3.48 -4.75,4.94 -19.88,13.49 -56.99,39.69 -93.42,96.65 l -0.01,0.01 c 8.14,7.91 16.2,15.25 24.23,22.19 2.61,2.26 5.21,4.25 7.81,6.41 5.42,4.49 10.86,8.9 16.27,12.96 3.08,2.3 6.18,4.41 9.26,6.57 4.96,3.49 9.94,6.86 14.91,9.98 3.25,2.03 6.51,3.95 9.77,5.83 4.89,2.82 9.82,5.47 14.76,7.95 3.3,1.65 6.61,3.28 9.92,4.78 5.1,2.3 10.26,4.34 15.43,6.28 3.18,1.2 6.36,2.47 9.58,3.53 5.77,1.91 11.66,3.46 17.56,4.94 2.7,0.67 5.37,1.51 8.1,2.09 8.68,1.86 17.49,3.33 26.52,4.28 0.8,0.09 1.64,0.07 2.44,0.15 8.27,0.8 16.69,1.23 25.3,1.29 0.65,0.01 1.26,0.1 1.91,0.1 1.16,0 2.47,-0.24 3.64,-0.26 12.92,-0.14 26.28,-1.08 40.15,-2.84 1.54,-0.19 3.03,-0.28 4.59,-0.49 14.43,-2 29.59,-5.03 45.25,-8.72 2.98,-0.7 5.99,-1.4 9.03,-2.16 15.63,-3.94 31.9,-8.62 48.93,-14.14 2.99,-0.97 6.14,-2.07 9.18,-3.09 18.02,-6.04 36.62,-12.67 56.41,-20.41 -11.44,48.29 -39.29,86.63 -83.06,114.27 -9.63,6.08 -19.97,11.32 -30.6,16.18 -2.33,1.07 -4.67,2.13 -7.04,3.14 -10.8,4.58 -21.91,8.77 -33.5,12.24 -41.71,12.5 -88.01,17.99 -135.18,17.99 -77.5,0 -157.29,-14.68 -222.76,-36.89 -1.44,-11.75 -1.77,-23.19 -1.57,-34.46 0.4,-22.98 4.06,-44.86 9.82,-65.56 0.44,-1.6 0.82,-3.23 1.29,-4.81" /><path
         id="path98"
         style="fill:#ffffff;fill-opacity:1;fill-rule:nonzero;stroke:none"
         d="m 3267.82,4287.23 c -15.74,36.74 -115.92,87.28 -144.89,86.3 -10.2,-0.92 -33.12,-21.44 -57.65,-46.42 35.08,-22.3 125.75,-74.12 222.3,-82.81 -8.46,17.84 -15.64,33.31 -19.76,42.93" /><path
         id="path100"
         style="fill:#ffffff;fill-opacity:1;fill-rule:nonzero;stroke:none"
         d="m 2898.1,4212.48 c 845.07,-189.03 1005.88,-1111.39 1017.67,-1228.61 6.49,-64.6 -21.61,-71.21 -48.71,-82.58 -25.61,-10.75 -49,-29.12 -86.49,7.99 -33.84,33.48 -249.87,308.37 -571.19,521.03 -136.59,82.93 -245.54,93.88 -331.62,58.68 11.7,38.14 29.82,64.76 51.44,82.95 -33.21,1.85 -64.35,-3.39 -94.64,-15.77 6.69,21.8 15.28,39.39 25.13,53.8 -216.48,81.83 -434.92,115.87 -630.25,100.08 -196.94,-25.25 -301.4,-123.16 -393.47,-281.68 -10.6,78.91 5.2,135.88 26.1,174.97 -252.59,-140.3 -425.66,-379.4 -530.67,-606.91 -60.54,-141.78 -101.88,-249.12 -49.19,-361.39 -22.87,9.08 -42.51,25.9 -58.59,44.12 -17.36,-81.12 -23.21,-149.82 -18.47,-197.22 39.25,-260.93 144.99,-500.34 299.66,-700.24 -1.19,211.47 61.22,535.04 177.7,774.1 14.72,-25.24 33.27,-51.17 56.66,-76.74 -8.63,161.67 76.1,325.2 294.4,467.17 95.69,58.85 200.5,98.15 307,113.48 -18.86,-27.01 -34.43,-59.43 -42.8,-99.03 109.3,87.48 240.03,115.41 437.92,73.87 14,-3.13 28.02,-6.15 41.92,-9.62 0.76,-0.19 1.5,-0.34 2.26,-0.53 224.12,-56.2 433.72,-154.11 569.97,-217.75 42.2,-19.71 75.29,-35.41 100.05,-45.29 24.54,-9.8 88.87,-30.44 88.87,-30.44 23.52,-8.41 33.01,-12.65 54.59,-19.46 -37.47,24.58 -85.31,61.4 -104.9,80.66 -34.29,33.72 -57.64,58.21 -63.38,76.29 -7.6,23.91 -1.57,56.93 11.76,56.93 8.35,0 9.95,-18.47 14.05,-33.4 7.59,-27.71 38.71,-49.71 69.45,-72.49 49.24,-36.47 204.41,-145.44 275.88,-171.41 67.5,-24.51 108.31,-26.46 146.02,-5.13 -6.7,9.37 -11.57,19.95 -12.39,31.89 -2.26,33.08 -0.09,150.34 77.61,151.51 -6.6,-45.46 1.17,-77.7 22.93,-95.19 26.24,-21.08 62.93,-14.76 75.76,-4.66 12.48,9.83 28.35,28.36 22.87,35.79 -3.24,4.39 -14.05,-3.17 -26.76,-13.26 -12.71,-10.08 -33.02,-11.47 -47.01,-3.1 -24.74,14.8 -18.65,83.91 -4.72,117.59 13.93,33.68 37.26,51.06 52.93,74.3 15.67,23.24 37.79,40.06 68.34,40.04 7.6,0 16.09,2.06 24.83,4.6 -118.18,643.65 -643.66,1146.42 -1298.52,1230.06" /><path
         id="path102"
         style="fill:#ffffff;fill-opacity:1;fill-rule:nonzero;stroke:none"
         d="m 3748.27,3326.37 -4.01,-28.49 -183.71,99.05 -85.14,-19.26 69.81,-7.64 212.11,-100.23 -9.06,56.57" /><path
         id="path104"
         style="fill:#ffffff;fill-opacity:1;fill-rule:nonzero;stroke:none"
         d="m 3617.01,3250.35 c -44.91,19.07 -51.61,81.79 -53.48,92.68 l -20.02,9.36 c 1.47,-16.04 6.94,-92.54 66.32,-117.92 60.98,-26.07 104.98,30.86 108.16,35.57 l -17.6,8.21 c -4.41,-5.67 -37.61,-47.35 -83.38,-27.9" /><path
         id="path106"
         style="fill:#ffffff;fill-opacity:1;fill-rule:nonzero;stroke:none"
         d="m 3664,3295.45 c -1.09,-5.09 -5.03,-21.92 -11.3,-30.36 16.9,-0.81 27.51,17.77 29.59,21.71 l -18.29,8.65" /><path
         id="path108"
         style="fill:#211f1e;fill-opacity:1;fill-rule:nonzero;stroke:none"
         d="m 4194.7,2616.39 c -2.73,-23.13 -5.95,-46.22 -9.86,-69.16 -17.9,-105.11 -52.42,-206.31 -112.1,-294.83 -52.86,-78.41 -116.84,-149.48 -212.91,-177.05 -27.34,-7.85 -58.05,-8.34 -86.71,-6.03 -32.73,2.64 -40.79,22.44 -24.26,50.9 41.56,71.55 86.12,141.49 124.76,214.57 25.73,48.67 46.01,100.73 64,152.91 11.63,33.72 22.37,67.76 32.81,101.9 2.55,-0.89 5.43,-2.24 7.66,-2.75 14.49,-3.61 47.75,7.04 70.9,19.35 15.05,8.01 35.3,7.94 53.82,18.94 21.13,12.54 54.15,34.75 93.53,77.58 0.02,-3.71 0.28,-7.37 0.28,-11.09 0,-25.23 -0.68,-50.3 -1.92,-75.24 z M 4051.81,2052.1 c -29.37,-52.84 -57.61,-106.39 -88.98,-158.03 -27.69,-45.56 -55.99,-91.33 -89.36,-132.68 -42.87,-53.11 -88.04,-105.19 -137.91,-151.58 -43.59,-40.57 -111.03,-35.02 -159.53,10.73 -39.28,37.05 -75.35,77.51 -112.66,116.64 -24.16,25.34 -21.68,40.76 2.78,64.95 56.05,55.43 110.93,112.08 165.31,169.18 19.11,20.07 44.44,26.14 69.75,13.65 74.54,-36.79 150.29,-32.62 223.2,1.5 45.88,21.46 87.75,51.48 130.98,77.4 -0.64,-2.2 -1.2,-7.48 -3.58,-11.76 z M 3478.9,1408.93 c -138.45,-85.45 -291.69,-148.99 -454.93,-186.08 19.08,17.61 38.61,34.78 56.13,53.81 66.81,72.54 88.24,156.12 56.87,251.16 -9.23,27.97 -3.75,42.63 21.03,57.75 49.89,30.43 99.17,61.84 149.08,92.24 17.85,10.87 38.46,21.49 56.84,4.31 44.15,-41.25 91.62,-80.41 128.45,-127.68 40.8,-52.36 29.31,-105.67 -13.47,-145.51 z m -580.85,-138.12 c -33.56,-16.12 -66.93,-33.29 -101.92,-45.63 -22.2,-7.84 -44.75,-14.08 -67.46,-19.54 -111.67,19.61 -272.41,66.62 -405.24,172.42 37.36,-0.94 74.72,-1.18 112.03,-0.38 48.53,1.03 97.02,9.37 145.3,16.09 46.15,6.43 92.52,12.81 137.87,23.24 44.66,10.27 88.53,24.5 132.07,39 50.21,16.72 99.32,36.81 149.8,52.54 9.25,2.88 30.18,-5.44 32.91,-13.15 6.91,-19.44 12.93,-43.17 7.92,-62.18 -20.34,-77.13 -72.77,-128.53 -143.28,-162.41 z m -673.88,210.48 c -1.31,0.05 -2.61,0.21 -3.93,0.26 -42.65,54.18 -78.1,118.18 -101.77,194.04 -16.26,52.1 -24.58,111.48 -25.05,174.9 73.59,-19.49 148.08,-35.67 222.14,-53.46 87.1,-20.91 174.09,-42.28 261.25,-62.92 41.49,-9.83 84.52,-14.75 124.65,-28.4 72.07,-24.5 142.59,-53.61 213.37,-81.75 7,-2.78 15.77,-12.29 15.68,-18.56 -0.09,-6.2 -9.29,-14.71 -16.4,-17.87 -17.61,-7.82 -35.99,-14.43 -54.65,-19.27 -70.81,-18.37 -141.22,-39.18 -212.98,-52.73 -77.14,-14.56 -155.37,-24.93 -233.59,-31.62 -62.55,-5.35 -125.9,-5.03 -188.72,-2.62 z m 1014.02,279.38 c -36.27,-25.3 -74.55,-47.73 -112.33,-70.81 -16.51,-10.09 -32.97,-21.72 -51.1,-27.15 -11.71,-3.5 -30.13,-1.6 -39.15,5.74 -59.1,48.04 -126.83,79.39 -197.98,102.67 -67.21,21.99 -135.86,39.91 -204.51,57.09 -81.76,20.47 -164.19,38.22 -246.33,57.18 -76.93,17.76 -154.25,34.08 -230.68,53.78 -18.94,4.89 -37.69,10.51 -56.51,15.88 28.64,233.88 157.25,498.53 398.83,665.58 8.97,-10.66 17.76,-21.48 26.79,-32.09 45.42,-53.39 91.74,-106.03 138.09,-158.63 52.79,-59.9 105.5,-119.89 159.26,-178.93 72.49,-79.6 145.32,-158.91 219.16,-237.25 64.62,-68.55 130.7,-135.73 196.47,-203.17 16.63,-17.05 19.12,-36.54 -0.01,-49.89 z m -301.04,520.64 c -67.44,71.99 -132.35,146.4 -196.81,221.11 -49.89,57.82 -98.78,116.51 -147.94,174.96 25.13,13.17 51.1,25.49 78.24,36.57 319.44,130.46 617.43,45.32 799.72,-17.92 0.45,-11.12 1.06,-22.24 1.36,-33.37 1.4,-53.04 0.66,-106.14 2.17,-159.18 0.73,-25.56 3.28,-51.21 7.13,-76.5 10.66,-70.02 19.33,-140.57 35.01,-209.49 8.68,-38.16 27.7,-74.6 46.24,-109.6 10.05,-19 14.18,-34.68 0.62,-51.03 -28.94,-34.88 -57.83,-69.94 -88.97,-102.79 -26.22,-27.65 -55.9,-51.98 -83.51,-78.34 -26.73,-25.53 -41.6,-26.8 -66.89,-0.37 -129.17,134.95 -258.66,269.62 -386.37,405.95 z m 914.32,298.72 c -28.51,-74.44 -59.56,-148.02 -92.85,-220.44 -24.51,-53.31 -54.25,-104.27 -83.05,-155.49 -5.32,-9.46 -17.35,-15.14 -26.27,-22.57 -5.44,7.99 -12.35,15.35 -16.08,24.07 -29.02,67.81 -38.61,139.68 -43.93,212.54 -3.94,53.86 -10.91,107.52 -13.94,161.43 -1.51,26.71 -1.74,53.5 -1.78,80.3 44.6,-14.83 75.32,-21.89 94.82,-14.7 33.95,-18.62 67.35,-34.49 94.09,-44.2 31.69,-11.54 60.98,-19.24 88.99,-20.94 z m -306.25,790 -69.81,7.64 85.14,19.26 183.71,-99.05 4.01,28.49 9.06,-56.57 z m 107.48,-104.94 c 6.27,8.44 10.21,25.27 11.3,30.36 l 18.29,-8.65 c -2.08,-3.94 -12.69,-22.52 -29.59,-21.71 z m 47.69,13.16 17.6,-8.21 c -3.18,-4.71 -47.18,-61.64 -108.16,-35.57 -59.38,25.38 -64.85,101.88 -66.32,117.92 l 20.02,-9.36 c 1.87,-10.89 8.57,-73.61 53.48,-92.68 45.77,-19.45 78.97,22.23 83.38,27.9 z M 1739.17,2479.06 c -23.39,25.57 -41.94,51.5 -56.66,76.74 -116.48,-239.06 -178.89,-562.63 -177.7,-774.1 -154.67,199.9 -260.41,439.31 -299.66,700.24 -4.74,47.4 1.11,116.1 18.47,197.22 16.08,-18.22 35.72,-35.04 58.59,-44.12 -52.69,112.27 -11.35,219.61 49.19,361.39 105.01,227.51 278.08,466.61 530.67,606.91 -20.9,-39.09 -36.7,-96.06 -26.1,-174.97 92.07,158.52 196.53,256.43 393.47,281.68 195.33,15.79 413.77,-18.25 630.25,-100.08 -9.85,-14.41 -18.44,-32 -25.13,-53.8 30.29,12.38 61.43,17.62 94.64,15.77 -21.62,-18.19 -39.74,-44.81 -51.44,-82.95 86.08,35.2 195.03,24.25 331.62,-58.68 321.32,-212.66 537.35,-487.55 571.19,-521.03 37.49,-37.11 60.88,-18.74 86.49,-7.99 27.1,11.37 55.2,17.98 48.71,82.58 -11.79,117.22 -172.6,1039.58 -1017.67,1228.61 654.86,-83.64 1180.34,-586.41 1298.52,-1230.06 -8.74,-2.54 -17.23,-4.6 -24.83,-4.6 -30.55,0.02 -52.67,-16.8 -68.34,-40.04 -15.67,-23.24 -39,-40.62 -52.93,-74.3 -13.93,-33.68 -20.02,-102.79 4.72,-117.59 13.99,-8.37 34.3,-6.98 47.01,3.1 12.71,10.09 23.52,17.65 26.76,13.26 5.48,-7.43 -10.39,-25.96 -22.87,-35.79 -12.83,-10.1 -49.52,-16.42 -75.76,4.66 -21.76,17.49 -29.53,49.73 -22.93,95.19 -77.7,-1.17 -79.87,-118.43 -77.61,-151.51 0.82,-11.94 5.69,-22.52 12.39,-31.89 -37.71,-21.33 -78.52,-19.38 -146.02,5.13 -71.47,25.97 -226.64,134.94 -275.88,171.41 -30.74,22.78 -61.86,44.78 -69.45,72.49 -4.1,14.93 -5.7,33.4 -14.05,33.4 -13.33,0 -19.36,-33.02 -11.76,-56.93 5.74,-18.08 29.09,-42.57 63.38,-76.29 19.59,-19.26 67.43,-56.08 104.9,-80.66 -21.58,6.81 -31.07,11.05 -54.59,19.46 0,0 -64.33,20.64 -88.87,30.44 -24.76,9.88 -57.85,25.58 -100.05,45.29 -136.25,63.64 -345.85,161.55 -569.97,217.75 -0.76,0.19 -1.5,0.34 -2.26,0.53 -13.9,3.47 -27.92,6.49 -41.92,9.62 -197.89,41.54 -328.62,13.61 -437.92,-73.87 8.37,39.6 23.94,72.02 42.8,99.03 -106.5,-15.33 -211.31,-54.63 -307,-113.48 -218.3,-141.97 -303.03,-305.5 -294.4,-467.17 z m 560.22,1759.1 c 65.47,22.21 145.26,36.89 222.76,36.89 47.18,0 93.48,-5.49 135.18,-17.99 11.6,-3.47 22.7,-7.66 33.5,-12.24 2.37,-1.01 4.72,-2.07 7.05,-3.14 10.63,-4.86 20.97,-10.1 30.59,-16.18 43.77,-27.64 71.62,-65.98 83.06,-114.27 -19.79,7.74 -38.38,14.37 -56.41,20.41 -3.04,1.02 -6.18,2.12 -9.18,3.1 -17.03,5.52 -33.3,10.19 -48.93,14.13 -3.04,0.76 -6.04,1.46 -9.03,2.16 -15.66,3.69 -30.82,6.72 -45.25,8.72 -1.56,0.21 -3.05,0.3 -4.59,0.49 -13.87,1.76 -27.22,2.7 -40.14,2.84 -1.18,0.02 -2.48,0.26 -3.65,0.26 -0.65,0 -1.26,-0.09 -1.9,-0.1 -8.62,-0.06 -17.04,-0.49 -25.31,-1.29 -0.79,-0.08 -1.64,-0.06 -2.44,-0.14 -9.03,-0.96 -17.84,-2.43 -26.52,-4.28 -2.73,-0.59 -5.4,-1.43 -8.1,-2.1 -5.9,-1.47 -11.78,-3.03 -17.56,-4.94 -3.22,-1.06 -6.4,-2.33 -9.58,-3.53 -5.17,-1.94 -10.33,-3.98 -15.42,-6.28 -3.32,-1.5 -6.63,-3.13 -9.92,-4.78 -4.94,-2.48 -9.88,-5.13 -14.77,-7.96 -3.25,-1.87 -6.52,-3.79 -9.76,-5.82 -4.98,-3.11 -9.96,-6.49 -14.92,-9.98 -3.08,-2.16 -6.17,-4.27 -9.26,-6.57 -5.41,-4.06 -10.84,-8.47 -16.27,-12.96 -2.6,-2.15 -5.2,-4.15 -7.81,-6.41 -8.03,-6.94 -16.09,-14.28 -24.23,-22.19 h 0.02 c 36.42,-56.97 73.53,-83.17 93.42,-96.66 2.16,-1.46 3.63,-3.16 4.74,-4.94 0.36,-0.57 0.52,-1.19 0.78,-1.78 0.54,-1.26 0.96,-2.53 1.09,-3.83 0.07,-0.69 0.06,-1.38 0.03,-2.08 -0.07,-1.26 -0.3,-2.53 -0.69,-3.77 -0.21,-0.65 -0.37,-1.3 -0.66,-1.93 -0.61,-1.36 -1.44,-2.65 -2.38,-3.88 -0.32,-0.41 -0.55,-0.88 -0.9,-1.27 -1.4,-1.56 -3.04,-2.97 -4.87,-4.1 -0.39,-0.25 -0.86,-0.37 -1.27,-0.6 -1.49,-0.8 -3.06,-1.47 -4.73,-1.9 -0.73,-0.18 -1.49,-0.23 -2.25,-0.34 -1.55,-0.21 -3.13,-0.27 -4.75,-0.1 -0.64,0.07 -1.27,0.13 -1.92,0.27 -2.28,0.49 -4.58,1.25 -6.85,2.67 -15.43,9.66 -67.56,56.93 -93.86,98.64 -4.1,5.9 -8.09,12.09 -11.99,18.45 -1.59,2.59 -3.09,5.32 -4.63,7.99 -2.19,3.78 -4.36,7.59 -6.45,11.51 -1.88,3.56 -3.67,7.22 -5.45,10.89 -1.52,3.12 -2.99,6.27 -4.42,9.46 -1.94,4.36 -3.8,8.77 -5.55,13.26 -1,2.52 -1.92,5.1 -2.85,7.67 -1.86,5.16 -3.67,10.36 -5.26,15.69 -0.47,1.58 -0.84,3.21 -1.29,4.81 -5.76,20.7 -9.42,42.58 -9.82,65.56 -0.19,11.27 0.13,22.71 1.57,34.46 z m 824.18,135.38 c 28.98,0.97 129.15,-49.57 144.89,-86.31 4.12,-9.62 11.3,-25.09 19.76,-42.93 -96.55,8.69 -187.22,60.51 -222.29,82.81 24.52,24.98 47.44,45.5 57.64,46.43 z m 264.24,-181.77 c -23.06,47.19 -48.89,100.69 -57.93,121.8 -25.75,60.06 -143.63,126.89 -204.09,126.89 v 0 c -2.89,0 -5.65,-0.14 -8.28,-0.39 -37.11,-3.07 -76.95,-38.9 -149.82,-120.56 -82.08,13.14 -166.18,20.26 -251.86,20.68 -10.35,4.04 -20.47,7.7 -30.4,10.67 -48.94,14.67 -103.88,22.11 -163.28,22.11 v 0 c -83.93,0 -174.22,-14.94 -254.21,-42.08 l -58.25,-19.76 -6.18,-50.36 C 1548.13,4048.29 1074.12,3433.12 1074.12,2706.94 c 0,-902.13 731.32,-1633.46 1633.46,-1633.46 902.13,0 1633.46,731.33 1633.46,1633.46 0,659.28 -390.83,1226.82 -953.23,1484.83" /></g></g></svg>